<svg width="25" height="28" viewBox="0 0 25 28" fill="none" xmlns="http://www.w3.org/2000/svg">
<path fill-rule="evenodd" clip-rule="evenodd" d="M13.1738 2C9.30785 2 6.17384 5.134 6.17384 8.99999V12.6707C6.17384 13.7711 5.49344 14.7344 4.83183 15.6136C4.30956 16.3076 4 17.1708 4 18.1063C4 20.1099 5.43149 21.8289 7.41611 22.1041C9.38696 22.3774 11.8496 22.6523 13.7825 22.6523C15.7155 22.6523 18.1781 22.3774 20.149 22.1041C22.1336 21.8289 23.5651 20.1099 23.5651 18.1063C23.5651 17.1708 23.2555 16.3076 22.7332 15.6135C22.0716 14.7343 21.3911 13.771 21.3911 12.6706V9C21.3911 5.13401 18.2571 2 14.3911 2H13.1738Z" fill="black"/>
<path d="M16.5 25.5423C15.9158 26.4209 14.9168 27 13.7826 27C12.6484 27 11.6495 26.4209 11.0653 25.5423" stroke="black" stroke-width="2" stroke-linecap="round"/>
</svg>
