<svg width="16" height="16" viewBox="0 0 16 16" fill="none" xmlns="http://www.w3.org/2000/svg">
<path d="M2 7.66666C1.99771 8.54657 2.20329 9.41458 2.6 10.2C3.07038 11.1412 3.7935 11.9328 4.68837 12.4862C5.58323 13.0396 6.6145 13.3329 7.66667 13.3333C8.54658 13.3356 9.41459 13.13 10.2 12.7333L14 14L12.7333 10.2C13.13 9.41458 13.3356 8.54657 13.3333 7.66666C13.3329 6.61449 13.0396 5.58322 12.4862 4.68836C11.9328 3.79349 11.1412 3.07037 10.2 2.59999C9.41459 2.20328 8.54658 1.99769 7.66667 1.99999H7.33333C5.94377 2.07665 4.6313 2.66316 3.64724 3.64723C2.66317 4.63129 2.07666 5.94376 2 7.33332V7.66666Z" stroke="black" stroke-linecap="round" stroke-linejoin="round"/>
</svg>
