<svg width="38" height="38" viewBox="0 0 38 38" fill="none" xmlns="http://www.w3.org/2000/svg">
<path d="M23.5731 13.9942L22.4719 5.36182C21.9519 1.28564 16.0481 1.28575 15.5281 5.36183L14.4269 13.9942C14.3981 14.2202 14.2202 14.3981 13.9942 14.4269L5.36182 15.5281C1.28564 16.0481 1.28575 21.9519 5.36183 22.4719L13.9942 23.5731C14.2202 23.6019 14.3981 23.7798 14.4269 24.0058L15.5281 32.6382C16.0481 36.7144 21.9519 36.7142 22.4719 32.6382L23.5731 24.0058C23.6019 23.7798 23.7798 23.6019 24.0058 23.5731L32.6382 22.4719C36.7144 21.9519 36.7142 16.0481 32.6382 15.5281L24.0058 14.4269C23.7798 14.3981 23.6019 14.2202 23.5731 13.9942Z" fill="#FC8A38" stroke="#F84A00" stroke-width="3"/>
</svg>
