<svg width="38" height="38" viewBox="0 0 38 38" fill="none" xmlns="http://www.w3.org/2000/svg">
<g clip-path="url(#clip0_121_352)">
<path d="M25.3335 20.5833V33.25" stroke="#545454" stroke-width="3" stroke-linecap="round" stroke-linejoin="round"/>
<path d="M12.6665 20.5833V33.25" stroke="#545454" stroke-width="3" stroke-linecap="round" stroke-linejoin="round"/>
<path d="M19 23.75V36.4167" stroke="#545454" stroke-width="3" stroke-linecap="round" stroke-linejoin="round"/>
<path d="M31.6669 26.2517C33.3314 25.5227 34.6944 24.2433 35.5272 22.6283C36.36 21.0133 36.6118 19.1609 36.2405 17.3821C35.8691 15.6034 34.8972 14.0065 33.4878 12.8596C32.0784 11.7127 30.3173 11.0855 28.5002 11.0833H26.5052C26.0033 9.13984 25.0467 7.34343 23.7143 5.8422C22.3818 4.34096 20.7117 3.17789 18.8415 2.44883C16.9713 1.71978 14.9547 1.44562 12.9577 1.64897C10.9608 1.85231 9.04075 2.52733 7.3559 3.61838C5.67105 4.70943 4.26962 6.18528 3.26711 7.92428C2.26461 9.66327 1.68975 11.6156 1.5899 13.6204C1.49005 15.6252 1.86809 17.625 2.69284 19.455C3.51759 21.285 4.76545 22.8928 6.33355 24.1458" fill="#A8A8A8"/>
<path d="M31.6669 26.2517C33.3314 25.5227 34.6944 24.2433 35.5272 22.6283C36.36 21.0133 36.6118 19.1609 36.2405 17.3821C35.8691 15.6034 34.8972 14.0065 33.4878 12.8596C32.0784 11.7127 30.3173 11.0855 28.5002 11.0833H26.5052C26.0033 9.13984 25.0467 7.34343 23.7143 5.8422C22.3818 4.34096 20.7117 3.17789 18.8415 2.44883C16.9713 1.71978 14.9547 1.44562 12.9577 1.64897C10.9608 1.85231 9.04075 2.52733 7.3559 3.61838C5.67105 4.70943 4.26962 6.18528 3.26711 7.92428C2.26461 9.66327 1.68975 11.6156 1.5899 13.6204C1.49005 15.6252 1.86809 17.625 2.69284 19.455C3.51759 21.285 4.76545 22.8928 6.33355 24.1458" stroke="#545454" stroke-width="3" stroke-linecap="round" stroke-linejoin="round"/>
</g>
<defs>
<clipPath id="clip0_121_352">
<rect width="38" height="38" fill="white"/>
</clipPath>
</defs>
</svg>
