<svg width="41" height="40" viewBox="0 0 41 40" fill="none" xmlns="http://www.w3.org/2000/svg">
<path d="M26.7536 11.3926L24.7798 5.31763C23.4327 1.17173 17.5673 1.17173 16.2202 5.31763L14.2464 11.3926C14.0456 12.0106 13.4696 12.4291 12.8198 12.4291L6.43217 12.4291C2.07291 12.4291 0.26042 18.0074 3.78713 20.5697L8.95482 24.3242C9.48055 24.7062 9.70054 25.3832 9.49973 26.0013L7.52585 32.0762C6.17876 36.2221 10.9239 39.6697 14.4506 37.1074L19.6183 33.3528C20.1441 32.9709 20.8559 32.9709 21.3817 33.3528L26.5494 37.1074C30.0761 39.6697 34.8212 36.2221 33.4742 32.0762L31.5003 26.0013C31.2995 25.3832 31.5195 24.7062 32.0452 24.3242L37.2129 20.5697C40.7396 18.0074 38.9271 12.4291 34.5678 12.4291L28.1802 12.4291C27.5304 12.4291 26.9544 12.0106 26.7536 11.3926Z" fill="#5D5AFF" stroke="#0400B3" stroke-width="3"/>
</svg>
