<svg width="34" height="34" viewBox="0 0 34 34" fill="none" xmlns="http://www.w3.org/2000/svg">
<path d="M31.9999 17.1111C32.0061 19.4576 31.4579 21.7723 30.4 23.8667C29.1456 26.3764 27.2173 28.4874 24.831 29.9632C22.4447 31.4389 19.6946 32.2211 16.8889 32.2222C14.96 32.2273 13.0525 31.8577 11.2712 31.1383C10.5295 30.8388 9.70648 30.7645 8.94765 31.0175L5.6921 32.1026C3.34682 32.8844 1.11561 30.6532 1.89737 28.3079L2.98255 25.0524C3.2355 24.2935 3.16124 23.4705 2.86171 22.7288C2.14233 20.9475 1.77275 19.04 1.77777 17.1111C1.77886 14.3054 2.56108 11.5553 4.03683 9.16902C5.51257 6.78271 7.62355 4.85439 10.1333 3.60005C12.2277 2.54215 14.5424 1.99393 16.8889 2.00005H17.7777C21.4833 2.20448 24.9831 3.76851 27.6073 6.39268C30.2315 9.01685 31.7955 12.5167 31.9999 16.2223V17.1111Z" fill="#B9D221" stroke="#51943A" stroke-width="3" stroke-linecap="round" stroke-linejoin="round"/>
</svg>
